<svg width="400" height="250" viewBox="0 0 400 250" xmlns="http://www.w3.org/2000/svg">
  <defs>
    <linearGradient id="bgGrad" x1="0%" y1="0%" x2="100%" y2="100%">
      <stop offset="0%" style="stop-color:#0a0e27;stop-opacity:1" />
      <stop offset="100%" style="stop-color:#000000;stop-opacity:1" />
    </linearGradient>
  </defs>
  
  <rect width="400" height="250" fill="url(#bgGrad)"/>
  
  <!-- Browser window -->
  <rect x="50" y="40" width="300" height="180" rx="8" fill="#1a1f3a" stroke="#00ff88" stroke-width="2"/>
  
  <!-- Browser bar -->
  <rect x="50" y="40" width="300" height="30" rx="8" fill="#0a0e27"/>
  <circle cx="70" cy="55" r="5" fill="#ef4444"/>
  <circle cx="90" cy="55" r="5" fill="#eab308"/>
  <circle cx="110" cy="55" r="5" fill="#00ff88"/>
  
  <!-- Code lines -->
  <rect x="70" y="90" width="80" height="8" rx="4" fill="#6366f1" opacity="0.6"/>
  <rect x="70" y="110" width="120" height="8" rx="4" fill="#00ff88" opacity="0.6"/>
  <rect x="90" y="130" width="100" height="8" rx="4" fill="#6366f1" opacity="0.4"/>
  <rect x="90" y="150" width="80" height="8" rx="4" fill="#00ff88" opacity="0.4"/>
  <rect x="70" y="170" width="140" height="8" rx="4" fill="#6366f1" opacity="0.6"/>
  
  <!-- Right side - rendered view -->
  <rect x="220" y="90" width="110" height="110" rx="4" fill="#000000" stroke="#00ff88" stroke-width="1" opacity="0.3"/>
  <rect x="230" y="100" width="90" height="20" rx="2" fill="#00ff88" opacity="0.5"/>
  <rect x="230" y="130" width="60" height="8" rx="2" fill="#d1d5db" opacity="0.3"/>
  <rect x="230" y="145" width="70" height="8" rx="2" fill="#d1d5db" opacity="0.3"/>
  <rect x="230" y="165" width="90" height="25" rx="4" fill="#6366f1" opacity="0.5"/>
  
  <!-- Decorative elements -->
  <text x="200" y="235" font-family="monospace" font-size="12" fill="#00ff88" opacity="0.5">&lt;/&gt;</text>
</svg>
